/* Created with The GIMP */
#define greetingStats_width 275
#define greetingStats_height 90
static unsigned char greetingStats_bits[] = {
   0x00, 0x00, 0x00, 0x00, 0x00, 0x00, 0x00, 0x00, 0x00, 0x00, 0x00, 0x00,
   0x00, 0x00, 0x00, 0x00, 0x00, 0x00, 0x00, 0x00, 0x00, 0x00, 0x00, 0x00,
   0x00, 0x00, 0x00, 0x00, 0x00, 0x00, 0x00, 0x00, 0x00, 0x00, 0x00, 0x00,
   0x00, 0x00, 0x00, 0x00, 0x00, 0x00, 0x00, 0x00, 0x00, 0x00, 0x00, 0x00,
   0x00, 0x00, 0x00, 0x00, 0x00, 0x00, 0x00, 0x00, 0x00, 0x00, 0x00, 0x00,
   0x00, 0x00, 0x00, 0x00, 0x00, 0x00, 0x00, 0x00, 0x00, 0x00, 0x00, 0x00,
   0x00, 0x00, 0x00, 0x00, 0x00, 0x00, 0x00, 0x00, 0x00, 0x00, 0x00, 0x00,
   0x00, 0x00, 0x00, 0x00, 0x00, 0x00, 0x00, 0x00, 0x00, 0x00, 0x00, 0x00,
   0x00, 0x00, 0x00, 0x00, 0x00, 0x00, 0x00, 0x00, 0x00, 0x00, 0x00, 0x00,
   0x00, 0x00, 0x00, 0x00, 0x00, 0x00, 0x00, 0x00, 0x00, 0x00, 0x00, 0x00,
   0x00, 0x00, 0x00, 0x00, 0x00, 0x00, 0x00, 0x00, 0x00, 0x00, 0x00, 0x00,
   0x00, 0x00, 0x00, 0x00, 0x00, 0x00, 0x00, 0x00, 0x00, 0x00, 0x00, 0x00,
   0x00, 0x00, 0x00, 0x00, 0x00, 0x00, 0x00, 0x00, 0x00, 0x00, 0x00, 0x00,
   0x00, 0x00, 0x00, 0x00, 0x00, 0x00, 0x00, 0x00, 0x00, 0x00, 0x00, 0x00,
   0x00, 0x00, 0x00, 0x00, 0x00, 0x00, 0x00, 0x00, 0x00, 0x00, 0x00, 0x00,
   0x00, 0x00, 0x00, 0x00, 0x00, 0x00, 0x00, 0x00, 0x00, 0x00, 0x00, 0x00,
   0x00, 0x00, 0x00, 0x00, 0x00, 0x00, 0x00, 0x00, 0x00, 0x00, 0x00, 0x00,
   0x00, 0x00, 0x00, 0x00, 0x00, 0x00, 0x00, 0x00, 0x00, 0x00, 0x00, 0x00,
   0x00, 0x00, 0x00, 0x00, 0x00, 0x00, 0x00, 0x00, 0x00, 0x00, 0x00, 0x00,
   0x00, 0x00, 0x00, 0x00, 0x00, 0x00, 0x00, 0x00, 0x00, 0x00, 0x00, 0x00,
   0x00, 0x00, 0x00, 0x00, 0x00, 0x00, 0x00, 0x00, 0x00, 0x00, 0x00, 0x00,
   0x00, 0x00, 0x00, 0x00, 0x00, 0x00, 0x00, 0x00, 0x00, 0x00, 0x00, 0x00,
   0x00, 0x00, 0x00, 0x00, 0x00, 0x00, 0x00, 0x00, 0x00, 0x00, 0x00, 0x00,
   0x00, 0x00, 0x00, 0x00, 0x00, 0x00, 0x00, 0x00, 0x00, 0x00, 0x00, 0x00,
   0x00, 0x00, 0x00, 0x00, 0x00, 0x00, 0x00, 0x00, 0x00, 0x00, 0x00, 0x00,
   0x00, 0x00, 0x00, 0x00, 0x00, 0x00, 0x00, 0x00, 0x00, 0x00, 0x00, 0x00,
   0x00, 0x00, 0x00, 0x00, 0x00, 0x00, 0x00, 0x00, 0x00, 0x00, 0x00, 0x00,
   0x00, 0x00, 0x00, 0x00, 0x00, 0x00, 0x00, 0x00, 0x00, 0x00, 0x00, 0x00,
   0x00, 0x00, 0x00, 0x00, 0x00, 0x00, 0x00, 0x00, 0x00, 0x00, 0x00, 0x00,
   0x00, 0x00, 0x00, 0x00, 0x00, 0x00, 0x00, 0x00, 0x00, 0x00, 0x00, 0x00,
   0x00, 0x00, 0x00, 0x00, 0x00, 0x00, 0x00, 0x00, 0x00, 0x00, 0x00, 0x00,
   0x00, 0x00, 0x00, 0x00, 0x00, 0x00, 0x00, 0x00, 0x00, 0x00, 0x00, 0x00,
   0x00, 0x00, 0x00, 0x00, 0x00, 0x00, 0x00, 0x00, 0x00, 0x00, 0x00, 0x00,
   0x00, 0x00, 0x00, 0x00, 0x00, 0x00, 0x00, 0x00, 0x00, 0x00, 0x00, 0x00,
   0x00, 0x00, 0x00, 0x00, 0x00, 0x00, 0x00, 0x00, 0x00, 0x00, 0x00, 0x00,
   0x00, 0x00, 0x00, 0x00, 0x00, 0x00, 0x00, 0x00, 0x00, 0x00, 0x00, 0x00,
   0x00, 0x00, 0x00, 0x00, 0x00, 0x00, 0x00, 0x00, 0x00, 0x00, 0x00, 0x00,
   0x00, 0x00, 0x00, 0x00, 0x00, 0x00, 0x00, 0x00, 0x00, 0x00, 0x00, 0x00,
   0x00, 0x00, 0x00, 0x00, 0x00, 0x00, 0x00, 0x00, 0x00, 0x00, 0x00, 0x00,
   0x00, 0x00, 0x00, 0x00, 0x00, 0x00, 0x00, 0x00, 0x00, 0x00, 0x00, 0x00,
   0x00, 0x00, 0x00, 0x00, 0x00, 0x00, 0x00, 0x00, 0x00, 0x00, 0x00, 0x00,
   0x00, 0x00, 0x00, 0x00, 0x00, 0x00, 0x00, 0x00, 0x00, 0x00, 0x00, 0x00,
   0x00, 0x00, 0x00, 0x00, 0x00, 0x00, 0x00, 0x00, 0x00, 0x00, 0x00, 0x00,
   0x00, 0x00, 0x00, 0x00, 0x00, 0x00, 0x00, 0x00, 0x00, 0x00, 0x00, 0x00,
   0x00, 0x00, 0x00, 0x00, 0x00, 0x00, 0x00, 0x00, 0x00, 0x00, 0x00, 0x00,
   0x00, 0x00, 0x00, 0x00, 0x00, 0x00, 0x00, 0x00, 0x00, 0x00, 0x00, 0x00,
   0x00, 0x00, 0x00, 0x00, 0x00, 0x00, 0x00, 0x00, 0x00, 0x00, 0x00, 0x00,
   0x00, 0x00, 0x00, 0x00, 0x00, 0x00, 0x00, 0x00, 0x00, 0x00, 0x00, 0x00,
   0x00, 0x00, 0x00, 0x00, 0x00, 0x00, 0x00, 0x00, 0x00, 0x00, 0x00, 0x00,
   0x00, 0x00, 0x00, 0x00, 0x00, 0x00, 0x00, 0x00, 0x00, 0x00, 0x00, 0x00,
   0x00, 0x00, 0x00, 0x00, 0x00, 0x00, 0x00, 0x00, 0x00, 0x00, 0x00, 0x00,
   0x00, 0x00, 0x00, 0x00, 0x00, 0x00, 0x00, 0x00, 0x00, 0x00, 0x00, 0x00,
   0x00, 0x00, 0x00, 0x00, 0x00, 0x00, 0x00, 0x00, 0x00, 0x00, 0x00, 0x00,
   0x00, 0x00, 0x00, 0x00, 0x00, 0x00, 0x00, 0x00, 0x00, 0x00, 0x00, 0x00,
   0x00, 0x00, 0x00, 0x00, 0x00, 0x00, 0x00, 0x00, 0x00, 0x00, 0x00, 0x00,
   0x00, 0x00, 0x00, 0x00, 0x00, 0x00, 0x00, 0x00, 0x00, 0x00, 0x00, 0x00,
   0x00, 0x00, 0x00, 0x00, 0x00, 0x00, 0x00, 0x00, 0x00, 0x00, 0x00, 0x00,
   0x00, 0x00, 0x00, 0x00, 0x00, 0x00, 0x00, 0x00, 0x00, 0x00, 0x00, 0x00,
   0x00, 0x00, 0x00, 0x00, 0x00, 0x00, 0x00, 0x00, 0x00, 0x00, 0x00, 0x00,
   0x00, 0x00, 0x00, 0x00, 0x00, 0x00, 0x00, 0x00, 0x00, 0x00, 0x00, 0x00,
   0x00, 0x00, 0x00, 0x00, 0x00, 0x00, 0x00, 0x00, 0x00, 0x00, 0x00, 0x00,
   0x00, 0x00, 0x00, 0x00, 0x00, 0x00, 0x00, 0x00, 0x00, 0x00, 0x00, 0x00,
   0x00, 0x00, 0x00, 0x00, 0x00, 0x00, 0x00, 0x00, 0x00, 0x00, 0x00, 0x00,
   0x00, 0x00, 0x00, 0x00, 0x00, 0x00, 0x00, 0x00, 0x00, 0x00, 0x00, 0x00,
   0x00, 0x00, 0x00, 0x00, 0x00, 0x00, 0x00, 0x00, 0x00, 0x00, 0x00, 0x00,
   0x00, 0x00, 0x00, 0x00, 0x00, 0x00, 0x00, 0x00, 0x00, 0x00, 0x00, 0x00,
   0x00, 0x00, 0x00, 0x00, 0x00, 0x00, 0x00, 0x00, 0x00, 0x00, 0x00, 0x00,
   0x00, 0x00, 0x00, 0x00, 0x00, 0x00, 0x00, 0x00, 0x00, 0x00, 0x00, 0x00,
   0x00, 0x00, 0x00, 0x00, 0x00, 0x00, 0x00, 0x00, 0x00, 0x00, 0x00, 0x00,
   0x00, 0x00, 0x00, 0x00, 0x00, 0x00, 0x00, 0x00, 0x00, 0x00, 0x00, 0x00,
   0x00, 0x00, 0x00, 0x00, 0x00, 0x00, 0x00, 0x00, 0x00, 0x00, 0x00, 0x00,
   0x00, 0x00, 0x00, 0x00, 0x00, 0x00, 0x00, 0x00, 0x00, 0x00, 0x00, 0x00,
   0x00, 0x00, 0x00, 0x00, 0x00, 0x00, 0x00, 0x00, 0x00, 0x00, 0x00, 0x00,
   0x00, 0x00, 0x00, 0x00, 0x00, 0x00, 0x00, 0x00, 0x00, 0x00, 0x00, 0x00,
   0x00, 0x00, 0x00, 0x00, 0x00, 0x00, 0x00, 0x00, 0x00, 0x00, 0x00, 0x00,
   0x00, 0x00, 0x00, 0x00, 0x00, 0x00, 0x00, 0x00, 0x00, 0x00, 0x00, 0x00,
   0x00, 0x00, 0x00, 0x00, 0x00, 0x00, 0x00, 0x00, 0x00, 0x00, 0x00, 0x00,
   0x00, 0x00, 0x00, 0x00, 0x00, 0x00, 0x00, 0x00, 0x00, 0x00, 0x00, 0x00,
   0x00, 0x00, 0x00, 0x00, 0x00, 0x00, 0x00, 0x00, 0x00, 0x00, 0x00, 0x00,
   0x00, 0x00, 0x00, 0x00, 0x00, 0x00, 0x00, 0x00, 0x00, 0x00, 0x00, 0x00,
   0x00, 0x00, 0x00, 0x00, 0x00, 0x00, 0x00, 0x00, 0x00, 0x00, 0x00, 0x00,
   0x00, 0x00, 0x00, 0x00, 0x00, 0x00, 0x00, 0x00, 0x00, 0x00, 0x00, 0x80,
   0x1f, 0x00, 0x00, 0x00, 0x00, 0x00, 0x00, 0x00, 0x80, 0x1f, 0x03, 0x80,
   0x1f, 0x03, 0x00, 0x00, 0x00, 0x80, 0x1f, 0x03, 0x18, 0x00, 0x00, 0x00,
   0x00, 0x00, 0x18, 0x00, 0x00, 0x00, 0x00, 0x00, 0x00, 0x00, 0xf0, 0x7f,
   0x07, 0xfe, 0x0f, 0x00, 0xfc, 0xff, 0x03, 0xf0, 0xff, 0x03, 0xf0, 0xff,
   0x03, 0x00, 0x00, 0x00, 0xf0, 0xff, 0x03, 0x38, 0x00, 0x00, 0x00, 0x00,
   0x00, 0x38, 0x00, 0x00, 0x00, 0x00, 0x00, 0x00, 0x00, 0xf8, 0xff, 0x07,
   0xfe, 0x0f, 0x00, 0xfe, 0xff, 0x03, 0xf8, 0xff, 0x03, 0xf8, 0xff, 0x03,
   0x00, 0x00, 0x00, 0xf8, 0xff, 0x03, 0x38, 0x00, 0x00, 0x00, 0x00, 0x00,
   0x38, 0x00, 0x00, 0x00, 0x00, 0x00, 0x00, 0x00, 0xfc, 0xff, 0x07, 0xff,
   0x1f, 0x00, 0xfe, 0xff, 0x03, 0xfc, 0xff, 0x03, 0xfc, 0xff, 0x03, 0x00,
   0x00, 0x00, 0xfc, 0xff, 0x03, 0x3c, 0x00, 0x00, 0x00, 0x00, 0x00, 0x3c,
   0x00, 0x00, 0x00, 0x00, 0x00, 0x00, 0x00, 0x7f, 0xf0, 0x07, 0xfe, 0x1f,
   0x00, 0xfe, 0xff, 0x01, 0x7e, 0xf0, 0x03, 0x7e, 0xf0, 0x03, 0x00, 0x00,
   0x00, 0x7e, 0xf0, 0x03, 0x3c, 0x00, 0x00, 0x00, 0x00, 0x00, 0x3c, 0x00,
   0x00, 0x00, 0x00, 0x00, 0x00, 0x00, 0x1f, 0xc0, 0x07, 0xe0, 0x1f, 0x00,
   0x80, 0x07, 0x00, 0x1e, 0xe0, 0x03, 0x1e, 0xe0, 0x03, 0x00, 0x00, 0x00,
   0x1e, 0xe0, 0x03, 0x3c, 0x00, 0x00, 0x00, 0x00, 0x00, 0x3c, 0x00, 0x00,
   0x00, 0x00, 0x00, 0x00, 0x80, 0x0f, 0xc0, 0x07, 0xf0, 0x1e, 0x00, 0x80,
   0x07, 0x00, 0x0f, 0xe0, 0x01, 0x0f, 0xe0, 0x01, 0x00, 0x00, 0x00, 0x0f,
   0xe0, 0x01, 0x1c, 0x00, 0x00, 0xf0, 0x0f, 0x00, 0x1c, 0x00, 0x00, 0x00,
   0x00, 0x00, 0x00, 0xc0, 0x07, 0xc0, 0x03, 0xf0, 0x1e, 0x00, 0x80, 0x07,
   0x00, 0x0f, 0xc0, 0x01, 0x0f, 0xc0, 0x01, 0x00, 0x00, 0x00, 0x0f, 0xc0,
   0xc1, 0xff, 0x3f, 0x00, 0xfe, 0x3f, 0xc0, 0xff, 0x3f, 0x00, 0x00, 0x00,
   0x00, 0x00, 0xc0, 0x03, 0x80, 0x03, 0x78, 0x3e, 0x00, 0xc0, 0x03, 0x00,
   0x0f, 0xc0, 0x00, 0x0f, 0xc0, 0x00, 0x00, 0x00, 0x00, 0x0f, 0xc0, 0xe0,
   0xff, 0x7f, 0x00, 0xff, 0x3f, 0xe0, 0xff, 0x7f, 0x00, 0x00, 0x00, 0x00,
   0x00, 0xe0, 0x03, 0x00, 0x00, 0x7c, 0x3e, 0x00, 0xc0, 0x03, 0x00, 0x1f,
   0x00, 0x00, 0x1f, 0x00, 0x00, 0x00, 0x00, 0x00, 0x1f, 0x00, 0xe0, 0xff,
   0x3f, 0x00, 0xff, 0x7f, 0xe0, 0xff, 0x3f, 0x00, 0x00, 0x00, 0x00, 0x00,
   0xe0, 0x01, 0x00, 0x00, 0x3c, 0x3e, 0x00, 0xc0, 0x03, 0x00, 0xff, 0x01,
   0x00, 0xff, 0x01, 0x00, 0x00, 0x00, 0x00, 0xff, 0x01, 0xe0, 0xff, 0x3f,
   0x00, 0x0f, 0x7c, 0xe0, 0xff, 0x3f, 0x00, 0x00, 0x00, 0x00, 0x00, 0xe0,
   0x01, 0x00, 0x00, 0x1e, 0x3c, 0x00, 0xc0, 0x03, 0x00, 0xfe, 0x1f, 0x00,
   0xfe, 0x1f, 0xc0, 0xff, 0xff, 0x01, 0xfe, 0x1f, 0x00, 0x0e, 0x00, 0x00,
   0x00, 0x78, 0x00, 0x0e, 0x00, 0x00, 0x00, 0x00, 0x00, 0x00, 0xe0, 0x01,
   0x00, 0x00, 0x1f, 0x3c, 0x00, 0xe0, 0x01, 0x00, 0xfc, 0x3f, 0x00, 0xfc,
   0x3f, 0xe0, 0xff, 0xff, 0x03, 0xfc, 0x3f, 0x00, 0x0e, 0x00, 0x00, 0xf8,
   0x7f, 0x00, 0x0e, 0x00, 0x00, 0x00, 0x00, 0x00, 0x00, 0xf0, 0x01, 0x00,
   0x00, 0x0f, 0x7c, 0x00, 0xe0, 0x01, 0x00, 0xf0, 0x7f, 0x00, 0xf0, 0x7f,
   0xe0, 0xff, 0xff, 0x01, 0xf0, 0x7f, 0x00, 0x0f, 0x00, 0x00, 0xfe, 0x7f,
   0x00, 0x0f, 0x00, 0x00, 0x00, 0x00, 0x00, 0x00, 0xf0, 0x00, 0x00, 0x80,
   0xff, 0x7f, 0x00, 0xe0, 0x01, 0x00, 0x00, 0xff, 0x00, 0x00, 0xff, 0xe0,
   0xff, 0xff, 0x01, 0x00, 0xff, 0x00, 0x0f, 0x00, 0x00, 0xff, 0x3f, 0x00,
   0x0f, 0x00, 0x00, 0x00, 0x00, 0x00, 0x00, 0xf0, 0x00, 0x00, 0x80, 0xff,
   0x7f, 0x00, 0xe0, 0x01, 0x00, 0x00, 0xf8, 0x00, 0x00, 0xf8, 0x00, 0x00,
   0x00, 0x00, 0x00, 0xf8, 0x00, 0x07, 0x00, 0xc0, 0xff, 0x3f, 0x00, 0x07,
   0x00, 0x00, 0x00, 0x00, 0x00, 0x00, 0xf0, 0x00, 0x00, 0xc0, 0xff, 0x7f,
   0x00, 0xe0, 0x01, 0xc0, 0x00, 0xf0, 0xc0, 0x00, 0xf0, 0x00, 0x00, 0x00,
   0xc0, 0x00, 0xf0, 0x00, 0x07, 0x00, 0xc0, 0x07, 0x3e, 0x00, 0x07, 0x00,
   0x00, 0x00, 0x00, 0x00, 0x00, 0xf0, 0x00, 0x00, 0xe0, 0xff, 0x7f, 0x00,
   0xf0, 0x00, 0xe0, 0x01, 0xf0, 0xe0, 0x01, 0xf0, 0x00, 0x00, 0x00, 0xe0,
   0x01, 0xf0, 0x80, 0x07, 0x00, 0xe0, 0x01, 0x3c, 0x80, 0x07, 0x00, 0x00,
   0x00, 0x00, 0x00, 0x00, 0xf0, 0x01, 0xe0, 0xe0, 0x01, 0xf8, 0x00, 0xf0,
   0x00, 0xe0, 0x01, 0xf8, 0xe0, 0x01, 0xf8, 0x00, 0x00, 0x00, 0xe0, 0x01,
   0xf8, 0x80, 0x07, 0x00, 0xf0, 0x00, 0x1c, 0x80, 0x07, 0x00, 0x00, 0x00,
   0x00, 0x00, 0x00, 0xe0, 0x03, 0xf0, 0xf0, 0x00, 0xf8, 0x00, 0xf0, 0x00,
   0xf0, 0x03, 0x7c, 0xf0, 0x03, 0x7c, 0x00, 0x00, 0x00, 0xf0, 0x03, 0x7c,
   0x80, 0x07, 0x38, 0xf0, 0x00, 0x1f, 0x80, 0x07, 0x38, 0x00, 0x00, 0x00,
   0x00, 0x00, 0xe0, 0x0f, 0xfc, 0xfc, 0x07, 0xff, 0xc3, 0xff, 0x3f, 0xf0,
   0x07, 0x7e, 0xf0, 0x07, 0x7e, 0x00, 0x00, 0x00, 0xf0, 0x07, 0x7e, 0x80,
   0x0f, 0x7e, 0xf0, 0xe1, 0xff, 0x80, 0x0f, 0x7e, 0x00, 0x00, 0x00, 0x00,
   0x00, 0xc0, 0xff, 0xff, 0xfe, 0x07, 0xff, 0xe3, 0xff, 0x3f, 0xf0, 0xff,
   0x3f, 0xf0, 0xff, 0x3f, 0x00, 0x00, 0x00, 0xf0, 0xff, 0x3f, 0x80, 0xff,
   0x7f, 0xf0, 0xff, 0xff, 0x80, 0xff, 0x7f, 0x00, 0x00, 0x00, 0x00, 0x00,
   0x80, 0xff, 0x3f, 0xfe, 0x87, 0xff, 0xe3, 0xff, 0x3f, 0xf0, 0xff, 0x1f,
   0xf0, 0xff, 0x1f, 0x00, 0x00, 0x00, 0xf0, 0xff, 0x1f, 0x00, 0xff, 0x3f,
   0xe0, 0xff, 0xff, 0x00, 0xff, 0x3f, 0x00, 0x00, 0x00, 0x00, 0x00, 0x00,
   0xff, 0x1f, 0xfe, 0x03, 0xff, 0xe1, 0xff, 0x1f, 0xf0, 0xff, 0x07, 0xf0,
   0xff, 0x07, 0x00, 0x00, 0x00, 0xf0, 0xff, 0x07, 0x00, 0xff, 0x0f, 0xc0,
   0xff, 0xff, 0x00, 0xff, 0x0f, 0x00, 0x00, 0x00, 0x00, 0x00, 0x00, 0xfc,
   0x03, 0x00, 0x00, 0x00, 0x00, 0x00, 0x00, 0x00, 0xfc, 0x01, 0x00, 0xfc,
   0x01, 0x00, 0x00, 0x00, 0x00, 0xfc, 0x01, 0x00, 0xfc, 0x01, 0x80, 0x3f,
   0x00, 0x00, 0xfc, 0x01, 0x00, 0x00, 0x00, 0x00, 0x00, 0x00, 0x00, 0x00,
   0x00, 0x00, 0x00, 0x00, 0x00, 0x00, 0x00, 0x00, 0x00, 0x00, 0x00, 0x00,
   0x00, 0x00, 0x00, 0x00, 0x00, 0x00, 0x00, 0x00, 0x00, 0x00, 0x00, 0x00,
   0x00, 0x00, 0x00, 0x00, 0x00, 0x00, 0x00, 0x00, 0x00, 0x00, 0x00, 0x00,
   0x00, 0x00, 0x00, 0x00, 0x00, 0x00, 0x00, 0x00, 0x00, 0x00, 0x00, 0x00,
   0x00, 0x00, 0x00, 0x00, 0x00, 0x00, 0x00, 0x00, 0x00, 0x00, 0x00, 0x00,
   0x00, 0x00, 0x00, 0x00, 0x00, 0x00, 0x00, 0x00, 0x00, 0x00, 0x00, 0x00,
   0x00, 0x00, 0x00, 0x00, 0x00, 0x00, 0x00, 0x00, 0x00, 0x00, 0x00, 0x00,
   0x00, 0x00, 0x00, 0x00, 0x00, 0x00, 0x00, 0x00, 0x00, 0x00, 0x00, 0x00,
   0x00, 0x00, 0x00, 0x00, 0x00, 0x00, 0x00, 0x00, 0x00, 0x00, 0x00, 0x00,
   0x00, 0x00, 0x00, 0x00, 0x00, 0x00, 0x00, 0x00, 0x00, 0x00, 0x00, 0x00,
   0x00, 0x00, 0x00, 0x00, 0x00, 0x00, 0x00, 0x00, 0x00, 0x00, 0x00, 0x00,
   0x00, 0x00, 0x00, 0x00, 0x00, 0x00, 0x00, 0x00, 0x00, 0x00, 0x00, 0x00,
   0x00, 0x00, 0x00, 0x00, 0x00, 0x00, 0x00, 0x00, 0x00, 0x00, 0x00, 0x00,
   0x00, 0x00, 0x00, 0x00, 0x00, 0x00, 0x00, 0x00, 0x00, 0x00, 0x00, 0x00,
   0x00, 0x00, 0x00, 0x00, 0x00, 0x00, 0x00, 0x00, 0x00, 0x00, 0x00, 0x00,
   0x00, 0x00, 0x00, 0x00, 0x00, 0x00, 0x00, 0x00, 0x00, 0x00, 0x00, 0x00,
   0x00, 0x00, 0x00, 0x00, 0x00, 0x00, 0x00, 0x00, 0x00, 0x00, 0x00, 0x00,
   0x00, 0x00, 0x00, 0x00, 0x00, 0x00, 0x00, 0x00, 0x00, 0x00, 0x00, 0x00,
   0x00, 0x00, 0x00, 0x00, 0x00, 0x00, 0x00, 0x00, 0x00, 0x00, 0x00, 0x00,
   0x00, 0x00, 0x00, 0x00, 0x00, 0x00, 0x00, 0x00, 0x00, 0x00, 0x00, 0x00,
   0x00, 0x00, 0x00, 0x00, 0x00, 0x00, 0x00, 0x00, 0x00, 0x00, 0x00, 0x00,
   0x00, 0x00, 0x00, 0x00, 0x00, 0x00, 0x00, 0x00, 0x00, 0x00, 0x00, 0x00,
   0x00, 0x00, 0x00, 0x00, 0x00, 0x00, 0x00, 0x00, 0x00, 0x00, 0x00, 0x00,
   0x00, 0x00, 0x00, 0x00, 0x00, 0x00, 0x00, 0x00, 0x00, 0x00, 0x00, 0x00,
   0x00, 0x00, 0x00, 0x00, 0x00, 0x00, 0x00, 0x00, 0x00, 0x00, 0x00, 0x00,
   0x00, 0x00, 0x00, 0x00, 0x00, 0x00, 0x00, 0x00, 0x00, 0x00, 0x00, 0x00,
   0x00, 0x00, 0x00, 0x00, 0x00, 0x00, 0x00, 0x00, 0x00, 0x00, 0x00, 0x00,
   0x00, 0x00, 0x00, 0x00, 0x00, 0x00, 0x00, 0x00, 0x00, 0x00, 0x00, 0x00,
   0x00, 0x00, 0x00, 0x00, 0x00, 0x00, 0x00, 0x00, 0x00, 0x00, 0x00, 0x00,
   0x00, 0x00, 0x00, 0x00, 0x00, 0x00, 0x00, 0x00, 0x00, 0x00, 0x00, 0x00,
   0x00, 0x00, 0x00, 0x00, 0x00, 0x00, 0x00, 0x00, 0x00, 0x00, 0x00, 0x00,
   0x00, 0x00, 0x00, 0x00, 0x00, 0x00, 0x00, 0x00, 0x00, 0x00, 0x00, 0x00,
   0x00, 0x00, 0x00, 0x00, 0x00, 0x00, 0x00, 0x00, 0x00, 0x00, 0x00, 0x00,
   0x00, 0x00, 0x00, 0x00, 0x00, 0x00, 0x00, 0x00, 0x00, 0x00, 0x00, 0x00,
   0x00, 0x00, 0x00, 0x00, 0x00, 0x00, 0x00, 0x00, 0x00, 0x00, 0x00, 0x00,
   0x00, 0x00, 0x00, 0x00, 0x00, 0x00, 0x00, 0x00, 0x00, 0x00, 0x00, 0x00,
   0x00, 0x00, 0x00, 0x00, 0x00, 0x00, 0x00, 0x00, 0x00, 0x00, 0x00, 0x00,
   0x00, 0x00, 0x00, 0x00, 0x00, 0x00, 0x00, 0x00, 0x00, 0x00, 0x00, 0x00,
   0x00, 0x00, 0x00, 0x00, 0x00, 0x00, 0x00, 0x00, 0x00, 0x00, 0x00, 0x00,
   0x00, 0x00, 0x00, 0x00, 0x00, 0x00, 0x00, 0x00, 0x00, 0x00, 0x00, 0x00,
   0x00, 0x00, 0x00, 0x00, 0x00, 0x00, 0x00, 0x00, 0x00, 0x00, 0x00, 0x00,
   0x00, 0x00, 0x00, 0x00, 0x00, 0x00, 0x00, 0x00, 0x00, 0x00, 0x00, 0x00,
   0x00, 0x00, 0x00, 0x00, 0x00, 0x00, 0x00, 0x00, 0x00, 0x00, 0x00, 0x00,
   0x00, 0x00, 0x00, 0x00, 0x00, 0x00, 0x00, 0x00, 0x00, 0x00, 0x00, 0x00,
   0x00, 0x00, 0x00, 0x00, 0x00, 0x00, 0x00, 0x00, 0x00, 0x00, 0x00, 0x00,
   0x00, 0x00, 0x00, 0x00, 0x00, 0x00, 0x00, 0x00, 0x00, 0x00, 0x00, 0x00,
   0x00, 0x00, 0x00, 0x00, 0x00, 0x00, 0x00, 0x00, 0x00, 0x00, 0x00, 0x00,
   0x00, 0x00, 0x00, 0x00, 0x00, 0x00, 0x00, 0x00, 0x00, 0x00, 0x00, 0x00,
   0x00, 0x00, 0x00, 0x00, 0x00, 0x00, 0x00, 0x00, 0x00, 0x00, 0x00, 0x00,
   0x00, 0x00, 0x00, 0x00, 0x00, 0x00, 0x00, 0x00, 0x00, 0x00, 0x00, 0x00,
   0x00, 0x00, 0x00, 0x00, 0x00, 0x00, 0x00, 0x00, 0x00, 0x00, 0x00, 0x00,
   0x00, 0x00, 0x00, 0x00, 0x00, 0x00, 0x00, 0x00, 0x00, 0x00, 0x00, 0x00,
   0x00, 0x00, 0x00, 0x00, 0x00, 0x00, 0x00, 0x00, 0x00, 0x00, 0x00, 0x00,
   0x00, 0x00, 0x00, 0x00, 0x00, 0x00, 0x00, 0x00, 0x00, 0x00, 0x00, 0x00,
   0x00, 0x00, 0x00, 0x00, 0x00, 0x00, 0x00, 0x00, 0x00, 0x00, 0x00, 0x00,
   0x00, 0x00, 0x00, 0x00, 0x00, 0x00, 0x00, 0x00, 0x00, 0x00, 0x00, 0x00,
   0x00, 0x00, 0x00, 0x00, 0x00, 0x00, 0x00, 0x00, 0x00, 0x00, 0x00, 0x00,
   0x00, 0x00, 0x00, 0x00, 0x00, 0x00, 0x00, 0x00, 0x00, 0x00, 0x00, 0x00,
   0x00, 0x00, 0x00, 0x00, 0x00, 0x00, 0x00, 0x00, 0x00, 0x00, 0x00, 0x00,
   0x00, 0x00, 0x00, 0x00, 0x00, 0x00, 0x00, 0x00, 0x00, 0x00, 0x00, 0x00,
   0x00, 0x00, 0x00, 0x00, 0x00, 0x00, 0x00, 0x00, 0x00, 0x00, 0x00, 0x00,
   0x00, 0x00, 0x00, 0x00, 0x00, 0x00, 0x00, 0x00, 0x00, 0x00, 0x00, 0x00,
   0x00, 0x00, 0x00, 0x00, 0x00, 0x00, 0x00, 0x00, 0x00, 0x00, 0x00, 0x00,
   0x00, 0x00, 0x00, 0x00, 0x00, 0x00, 0x00, 0x00, 0x00, 0x00, 0x00, 0x00,
   0x00, 0x00, 0x00, 0x00, 0x00, 0x00, 0x00, 0x00, 0x00, 0x00, 0x00, 0x00,
   0x00, 0x00, 0x00, 0x00, 0x00, 0x00, 0x00, 0x00, 0x00, 0x00, 0x00, 0x00,
   0x00, 0x00, 0x00, 0x00, 0x00, 0x00, 0x00, 0x00, 0x00, 0x40, 0x00, 0x3f,
   0x00, 0x20, 0x00, 0x00, 0xc0, 0x03, 0x00, 0xfc, 0x03, 0x00, 0x1c, 0x00,
   0x30, 0x00, 0x00, 0x00, 0x00, 0x70, 0xf8, 0x03, 0x60, 0x00, 0x00, 0xf8,
   0x11, 0x00, 0x31, 0x40, 0x0c, 0x00, 0x00, 0x00, 0xc0, 0x80, 0x21, 0x00,
   0x20, 0x00, 0x00, 0xc0, 0x02, 0x00, 0x30, 0x04, 0x00, 0x18, 0x00, 0x30,
   0x00, 0x00, 0x00, 0x00, 0x60, 0x30, 0x04, 0x60, 0x00, 0x00, 0x0c, 0x11,
   0x00, 0x31, 0x40, 0x0c, 0x00, 0x00, 0x00, 0xe0, 0x80, 0x03, 0x00, 0x30,
   0x00, 0x00, 0xc0, 0x00, 0x00, 0xb0, 0x00, 0x00, 0x18, 0x00, 0x00, 0x00,
   0x00, 0x00, 0x00, 0x60, 0x30, 0x0c, 0x00, 0x00, 0x00, 0x1c, 0x18, 0x80,
   0x01, 0x60, 0x00, 0x00, 0x00, 0x00, 0xe0, 0x01, 0x0f, 0x93, 0x7f, 0xde,
   0xff, 0xe1, 0xf9, 0x7e, 0xf0, 0x30, 0xfd, 0x98, 0xef, 0xbf, 0x3f, 0x3f,
   0x7c, 0x7f, 0x7e, 0x30, 0xcc, 0x77, 0x7f, 0x7e, 0x78, 0x3c, 0xdf, 0x3b,
   0xff, 0x8e, 0xf3, 0x00, 0x00, 0xa0, 0x01, 0x1e, 0xd3, 0x30, 0xb2, 0x99,
   0xc1, 0x8c, 0x0d, 0xb0, 0xe0, 0x98, 0xd9, 0xd8, 0x30, 0xb3, 0x19, 0x64,
   0x66, 0x63, 0x30, 0x6c, 0x6c, 0x66, 0x33, 0xf0, 0x18, 0x99, 0xb1, 0x61,
   0x6c, 0x1e, 0x00, 0x00, 0xf0, 0x03, 0x38, 0x96, 0x33, 0xbf, 0x99, 0xc1,
   0x8c, 0x0d, 0xb0, 0x60, 0x98, 0xd9, 0xd8, 0x30, 0xb3, 0x19, 0x70, 0x66,
   0x63, 0x30, 0x6c, 0x6c, 0x66, 0x33, 0xc0, 0x19, 0x9c, 0x31, 0x67, 0x6c,
   0x70, 0x00, 0x00, 0x08, 0x83, 0x30, 0x0e, 0x37, 0x83, 0x99, 0xc1, 0x8c,
   0x0d, 0xb0, 0xe4, 0x98, 0xd9, 0xd8, 0x30, 0x33, 0x0f, 0x6c, 0x66, 0x63,
   0x30, 0x6c, 0x6c, 0x66, 0x1e, 0x84, 0x19, 0x9b, 0x31, 0x6e, 0x6c, 0xe0,
   0x00, 0x00, 0x08, 0x83, 0x30, 0x44, 0xb6, 0xa6, 0x99, 0xc1, 0x88, 0x0c,
   0x30, 0x94, 0x99, 0x99, 0xc8, 0x30, 0xb3, 0x01, 0x66, 0x66, 0x63, 0x30,
   0x46, 0x64, 0x66, 0x03, 0x84, 0xd9, 0x99, 0xb5, 0x6c, 0xcd, 0xcc, 0x00,
   0x00, 0x9c, 0x8f, 0x1f, 0xc4, 0x73, 0xdc, 0xff, 0xe3, 0x71, 0x1e, 0xfc,
   0x93, 0xfb, 0x3c, 0xe7, 0xf9, 0xff, 0x1f, 0xfe, 0xff, 0x7e, 0xf8, 0x83,
   0xf3, 0xff, 0x3f, 0xfc, 0xb8, 0xbf, 0xfb, 0xe7, 0x9e, 0x7b, 0x00, 0x00,
   0x00, 0x00, 0x00, 0x04, 0x00, 0x00, 0x00, 0x00, 0x00, 0x00, 0x00, 0x00,
   0x18, 0x00, 0x00, 0x00, 0x00, 0x3f, 0x00, 0x00, 0x00, 0x00, 0x00, 0x00,
   0x00, 0x7e, 0x00, 0x00, 0x00, 0x00, 0x00, 0x00, 0x00, 0x00, 0x00, 0x00,
   0x00, 0x80, 0x05, 0x00, 0x00, 0x00, 0x00, 0x00, 0x00, 0x00, 0x00, 0x18,
   0x00, 0x00, 0x00, 0x80, 0x31, 0x00, 0x00, 0x00, 0x00, 0x00, 0x00, 0x00,
   0x63, 0x00, 0x00, 0x00, 0x00, 0x00, 0x00, 0x00, 0x00, 0x00, 0x00, 0x00,
   0x80, 0x03, 0x00, 0x00, 0x00, 0x00, 0x00, 0x00, 0x00, 0x00, 0x3c, 0x00,
   0x00, 0x00, 0x00, 0x1f, 0x00, 0x00, 0x00, 0x00, 0x00, 0x00, 0x00, 0x3e,
   0x00, 0x00, 0x00, 0x00, 0x00, 0x00, 0x00, 0x00, 0x00, 0x00, 0x00, 0x00,
   0x00, 0x00, 0x00, 0x00, 0x00, 0x00, 0x00, 0x00, 0x00, 0x00, 0x00, 0x00,
   0x00, 0x00, 0x00, 0x00, 0x00, 0x00, 0x00, 0x00, 0x00, 0x00, 0x00, 0x00,
   0x00, 0x00, 0x00, 0x00, 0x00, 0x00, 0x00, 0x00, 0x00, 0x00, 0x00, 0x00,
   0x00, 0x00, 0x00, 0x00, 0x00, 0x00, 0x00, 0x00, 0x00, 0x00, 0x00, 0x00,
   0x00, 0x00, 0x00, 0x00, 0x00, 0x00, 0x00, 0x00, 0x00, 0x00, 0x00, 0x00,
   0x00, 0x00, 0x00, 0x00, 0x00, 0x06 };
