/* Created with The GIMP */
#define greetingCalc_width 275
#define greetingCalc_height 90
static unsigned char greetingCalc_bits[] = {
   0x00, 0x00, 0x00, 0x00, 0x00, 0x00, 0x00, 0x00, 0x00, 0x00, 0x00, 0x00,
   0x00, 0x00, 0x00, 0x00, 0x00, 0x00, 0x00, 0x00, 0x00, 0x00, 0x00, 0x00,
   0x00, 0x00, 0x00, 0x00, 0x00, 0x00, 0x00, 0x00, 0x00, 0x00, 0x00, 0x00,
   0x00, 0x00, 0x00, 0x00, 0x00, 0x00, 0x00, 0x00, 0x00, 0x00, 0x00, 0x00,
   0x00, 0x00, 0x00, 0x00, 0x00, 0x00, 0x00, 0x00, 0x00, 0x00, 0x00, 0x00,
   0x00, 0x00, 0x00, 0x00, 0x00, 0x00, 0x00, 0x00, 0x00, 0x00, 0x00, 0x00,
   0x00, 0x00, 0x00, 0x00, 0x00, 0x00, 0x00, 0x00, 0x00, 0x00, 0x00, 0x00,
   0x00, 0x00, 0x00, 0x00, 0x00, 0x00, 0x00, 0x00, 0x00, 0x00, 0x00, 0x00,
   0x00, 0x00, 0x00, 0x00, 0x00, 0x00, 0x00, 0x00, 0x00, 0x00, 0x00, 0x00,
   0x00, 0x00, 0x00, 0x00, 0x00, 0x00, 0x00, 0x00, 0x00, 0x00, 0x00, 0x00,
   0x00, 0x00, 0x00, 0x00, 0x00, 0x00, 0x00, 0x00, 0x00, 0x00, 0x00, 0x00,
   0x00, 0x00, 0x00, 0x00, 0x00, 0x00, 0x00, 0x00, 0x00, 0x00, 0x00, 0x00,
   0x00, 0x00, 0x00, 0x00, 0x00, 0x00, 0x00, 0x00, 0x00, 0x00, 0x00, 0x00,
   0x00, 0x00, 0x00, 0x00, 0x00, 0x00, 0x00, 0x00, 0x00, 0x00, 0x00, 0x00,
   0x00, 0x00, 0x00, 0x00, 0x00, 0x00, 0x00, 0x00, 0x00, 0x00, 0x00, 0x00,
   0x00, 0x00, 0x00, 0x00, 0x00, 0x00, 0x00, 0x00, 0x00, 0x00, 0x00, 0x00,
   0x00, 0x00, 0x00, 0x00, 0x00, 0x00, 0x00, 0x00, 0x00, 0x00, 0x00, 0x00,
   0x00, 0x00, 0x00, 0x00, 0x00, 0x00, 0x00, 0x00, 0x00, 0x00, 0x00, 0x00,
   0x00, 0x00, 0x00, 0x00, 0x00, 0x00, 0x00, 0x00, 0x00, 0x00, 0x00, 0x00,
   0x00, 0x00, 0x00, 0x00, 0x00, 0x00, 0x00, 0x00, 0x00, 0x00, 0x00, 0x00,
   0x00, 0x00, 0x00, 0x00, 0x00, 0x00, 0x00, 0x00, 0x00, 0x00, 0x00, 0x00,
   0x00, 0x00, 0x00, 0x00, 0x00, 0x00, 0x00, 0x00, 0x00, 0x00, 0x00, 0x00,
   0x00, 0x00, 0x00, 0x00, 0x00, 0x00, 0x00, 0x00, 0x00, 0x00, 0x00, 0x00,
   0x00, 0x00, 0x00, 0x00, 0x00, 0x00, 0x00, 0x00, 0x00, 0x00, 0x00, 0x00,
   0x00, 0x00, 0x00, 0x00, 0x00, 0x00, 0x00, 0x00, 0x00, 0x00, 0x00, 0x00,
   0x00, 0x00, 0x00, 0x00, 0x00, 0x00, 0x00, 0x00, 0x00, 0x00, 0x00, 0x00,
   0x00, 0x00, 0x00, 0x00, 0x00, 0x00, 0x00, 0x00, 0x00, 0x00, 0x00, 0x00,
   0x00, 0x00, 0x00, 0x00, 0x00, 0x00, 0x00, 0x00, 0x00, 0x00, 0x00, 0x00,
   0x00, 0x00, 0x00, 0x00, 0x00, 0x00, 0x00, 0x00, 0x00, 0x00, 0x00, 0x00,
   0x00, 0x00, 0x00, 0x00, 0x00, 0x00, 0x00, 0x00, 0x00, 0x00, 0x00, 0x00,
   0x00, 0x00, 0x00, 0x00, 0x00, 0x00, 0x00, 0x00, 0x00, 0x00, 0x00, 0x00,
   0x00, 0x00, 0x00, 0x00, 0x00, 0x00, 0x00, 0x00, 0x00, 0x00, 0x00, 0x00,
   0x00, 0x00, 0x00, 0x00, 0x00, 0x00, 0x00, 0x00, 0x00, 0x00, 0x00, 0x00,
   0x00, 0x00, 0x00, 0x00, 0x00, 0x00, 0x00, 0x00, 0x00, 0x00, 0x00, 0x00,
   0x00, 0x00, 0x00, 0x00, 0x00, 0x00, 0x00, 0x00, 0x00, 0x00, 0x00, 0x00,
   0x00, 0x00, 0x00, 0x00, 0x00, 0x00, 0x00, 0x00, 0x00, 0x00, 0x00, 0x00,
   0x00, 0x00, 0x00, 0x00, 0x00, 0x00, 0x00, 0x00, 0x00, 0x00, 0x00, 0x00,
   0x00, 0x00, 0x00, 0x00, 0x00, 0x00, 0x00, 0x00, 0x00, 0x00, 0x00, 0x00,
   0x00, 0x00, 0x00, 0x00, 0x00, 0x00, 0x00, 0x00, 0x00, 0x00, 0x00, 0x00,
   0x00, 0x00, 0x00, 0x00, 0x00, 0x00, 0x00, 0x00, 0x00, 0x00, 0x00, 0x00,
   0x00, 0x00, 0x00, 0x00, 0x00, 0x00, 0x00, 0x00, 0x00, 0x00, 0x00, 0x00,
   0x00, 0x00, 0x00, 0x00, 0x00, 0x00, 0x00, 0x00, 0x00, 0x00, 0x00, 0x00,
   0x00, 0x00, 0x00, 0x00, 0x00, 0x00, 0x00, 0x00, 0x00, 0x00, 0x00, 0x00,
   0x00, 0x00, 0x00, 0x00, 0x00, 0x00, 0x00, 0x00, 0x00, 0x00, 0x00, 0x00,
   0x00, 0x00, 0x00, 0x00, 0x00, 0x00, 0x00, 0x00, 0x00, 0x00, 0x00, 0x00,
   0x00, 0x00, 0x00, 0x00, 0x00, 0x00, 0x00, 0x00, 0x00, 0x00, 0x00, 0x00,
   0x00, 0x00, 0x00, 0x00, 0x00, 0x00, 0x00, 0x00, 0x00, 0x00, 0x00, 0x00,
   0x00, 0x00, 0x00, 0x00, 0x00, 0x00, 0x00, 0x00, 0x00, 0x00, 0x00, 0x00,
   0x00, 0x00, 0x00, 0x00, 0x00, 0x00, 0x00, 0x00, 0x00, 0x00, 0x00, 0x00,
   0x00, 0x00, 0x00, 0x00, 0x00, 0x00, 0x00, 0x00, 0x00, 0x00, 0x00, 0x00,
   0x00, 0x00, 0x00, 0x00, 0x00, 0x00, 0x00, 0x00, 0x00, 0x00, 0x00, 0x00,
   0x00, 0x00, 0x00, 0x00, 0x00, 0x00, 0x00, 0x00, 0x00, 0x00, 0x00, 0x00,
   0x00, 0x00, 0x00, 0x00, 0x00, 0x00, 0x00, 0x00, 0x00, 0x00, 0x00, 0x00,
   0x00, 0x00, 0x00, 0x00, 0x00, 0x00, 0x00, 0x00, 0x00, 0x00, 0x00, 0x00,
   0x00, 0x00, 0x00, 0x00, 0x00, 0x00, 0x00, 0x00, 0x00, 0x00, 0x00, 0x00,
   0x00, 0x00, 0x00, 0x00, 0x00, 0x00, 0x00, 0x00, 0x00, 0x00, 0x00, 0x00,
   0x00, 0x00, 0x00, 0x00, 0x00, 0x00, 0x00, 0x00, 0x00, 0x00, 0x00, 0x00,
   0x00, 0x00, 0x00, 0x00, 0x00, 0x00, 0x00, 0x00, 0x00, 0x00, 0x00, 0x00,
   0x00, 0x00, 0x00, 0x00, 0x00, 0x00, 0x00, 0x00, 0x00, 0x00, 0x00, 0x00,
   0x00, 0x00, 0x00, 0x00, 0x00, 0x00, 0x00, 0x00, 0x00, 0x00, 0x00, 0x00,
   0x00, 0x00, 0x00, 0x00, 0x00, 0x00, 0x00, 0x00, 0x00, 0x00, 0x00, 0x00,
   0x00, 0x00, 0x00, 0x00, 0x00, 0x00, 0x00, 0x00, 0x00, 0x00, 0x00, 0x00,
   0x00, 0x00, 0x00, 0x00, 0x00, 0x00, 0x00, 0x00, 0x00, 0x00, 0x00, 0x00,
   0x00, 0x00, 0x00, 0x00, 0x00, 0x00, 0x00, 0x00, 0x00, 0x00, 0x00, 0x00,
   0x00, 0x00, 0x00, 0x00, 0x00, 0x00, 0x00, 0x00, 0x00, 0x00, 0x00, 0x00,
   0x00, 0x00, 0x00, 0x00, 0x00, 0x00, 0x00, 0x00, 0x00, 0x00, 0x00, 0x00,
   0x00, 0x00, 0x00, 0x00, 0x00, 0x00, 0x00, 0x00, 0x00, 0x00, 0x00, 0x00,
   0x00, 0x00, 0x00, 0x00, 0x00, 0x00, 0x00, 0x00, 0x00, 0x00, 0x00, 0x00,
   0x00, 0x00, 0x00, 0x00, 0x00, 0x00, 0x00, 0x00, 0x00, 0x00, 0x00, 0x00,
   0x00, 0x00, 0x00, 0x00, 0x00, 0x00, 0x00, 0x00, 0x00, 0x00, 0x00, 0x00,
   0x00, 0x00, 0x00, 0x00, 0x00, 0x00, 0x00, 0x00, 0x00, 0x00, 0x00, 0x00,
   0x00, 0x00, 0x00, 0x00, 0x00, 0x00, 0x00, 0x00, 0x00, 0x00, 0x00, 0x00,
   0x00, 0x00, 0x00, 0x00, 0x00, 0x00, 0x00, 0x00, 0x00, 0x00, 0x00, 0x00,
   0x00, 0x00, 0x00, 0x00, 0x00, 0x00, 0x00, 0x00, 0x00, 0x00, 0x00, 0x00,
   0x00, 0x00, 0x00, 0x00, 0x00, 0x00, 0x00, 0x00, 0x00, 0x00, 0x00, 0x00,
   0x00, 0x00, 0x00, 0x00, 0x00, 0x00, 0x00, 0x00, 0x00, 0x00, 0x00, 0x00,
   0x00, 0x00, 0x00, 0x00, 0x00, 0x00, 0x00, 0x00, 0x00, 0x00, 0x00, 0x00,
   0x00, 0x00, 0x00, 0x00, 0x00, 0x00, 0x00, 0x00, 0x00, 0x00, 0x00, 0x00,
   0x00, 0x00, 0x00, 0x00, 0x00, 0x00, 0x00, 0x00, 0x00, 0x00, 0x00, 0x00,
   0x00, 0x00, 0x00, 0x00, 0x00, 0x00, 0x00, 0x00, 0x00, 0x00, 0x00, 0x00,
   0x00, 0x00, 0x00, 0x00, 0x00, 0x00, 0x00, 0x00, 0x00, 0x00, 0x00, 0x00,
   0x00, 0x00, 0x00, 0x00, 0x00, 0x00, 0x00, 0x00, 0x00, 0x00, 0x00, 0x00,
   0x00, 0x00, 0x00, 0x00, 0x00, 0x00, 0x00, 0x00, 0x00, 0x00, 0x00, 0x00,
   0x00, 0x00, 0x00, 0x00, 0x00, 0x00, 0x00, 0x00, 0x00, 0x00, 0x00, 0x00,
   0x00, 0x00, 0x00, 0x00, 0x00, 0x00, 0x00, 0x00, 0x00, 0x00, 0x00, 0x00,
   0x00, 0x00, 0x00, 0x00, 0x00, 0x00, 0x00, 0x00, 0x00, 0x00, 0x00, 0x00,
   0x00, 0x00, 0x00, 0x00, 0x00, 0x00, 0x00, 0x00, 0x00, 0x00, 0x00, 0x00,
   0x00, 0x00, 0x00, 0x00, 0x00, 0x00, 0x00, 0x00, 0x00, 0x00, 0x00, 0x00,
   0x00, 0x00, 0x00, 0x00, 0x00, 0x00, 0x00, 0x00, 0x00, 0x00, 0x00, 0x00,
   0x00, 0x00, 0x00, 0x00, 0x00, 0x00, 0x00, 0x00, 0x00, 0x00, 0x00, 0x00,
   0x00, 0x00, 0x00, 0x00, 0x00, 0x00, 0x00, 0x00, 0x00, 0x00, 0x00, 0x00,
   0x00, 0x00, 0x00, 0x00, 0x00, 0x00, 0x00, 0x00, 0x00, 0x00, 0x00, 0x00,
   0x00, 0x00, 0x00, 0x00, 0x00, 0x00, 0x00, 0x00, 0x00, 0x00, 0x00, 0x00,
   0x00, 0x00, 0x00, 0x00, 0x00, 0x00, 0x00, 0x00, 0x00, 0x00, 0x00, 0x00,
   0x00, 0x00, 0x00, 0x00, 0x00, 0x00, 0x00, 0x00, 0x00, 0x00, 0x00, 0x00,
   0x00, 0x00, 0x00, 0x00, 0x00, 0x00, 0x00, 0x00, 0x00, 0x00, 0x00, 0x00,
   0x00, 0x00, 0x00, 0x00, 0x00, 0x00, 0x00, 0x00, 0x00, 0x00, 0x00, 0x00,
   0x00, 0x00, 0x00, 0x00, 0x00, 0x00, 0x00, 0x00, 0x00, 0x00, 0x00, 0x00,
   0x00, 0x00, 0x00, 0x00, 0x00, 0x00, 0x00, 0x00, 0x00, 0x00, 0x00, 0x00,
   0x00, 0x00, 0x00, 0xc0, 0x7f, 0x00, 0xe0, 0x3f, 0x00, 0x08, 0x00, 0x00,
   0xf8, 0x8f, 0xc1, 0x3f, 0xc0, 0x3f, 0xff, 0x0f, 0xff, 0x80, 0xff, 0x02,
   0x80, 0xff, 0x11, 0x00, 0x08, 0x00, 0xfc, 0x3f, 0x00, 0x00, 0xf8, 0x1f,
   0x01, 0x00, 0x00, 0x7f, 0x00, 0xf0, 0x0f, 0x00, 0x0c, 0x00, 0x00, 0x1e,
   0xfc, 0x81, 0x7f, 0x00, 0x0e, 0xfc, 0x01, 0x38, 0xe0, 0xc0, 0x03, 0xe0,
   0x81, 0x1f, 0x00, 0x0c, 0x00, 0xf0, 0x07, 0x00, 0x00, 0x1e, 0xf8, 0x01,
   0x00, 0x00, 0xfe, 0x00, 0xf0, 0x07, 0x00, 0x1c, 0x00, 0x80, 0x07, 0xf0,
   0x01, 0x7f, 0x00, 0x0c, 0xfc, 0x00, 0x30, 0x70, 0x80, 0x03, 0xf8, 0x00,
   0x1e, 0x00, 0x1c, 0x00, 0xe0, 0x07, 0x00, 0x80, 0x0f, 0xe0, 0x01, 0x00,
   0x00, 0xfe, 0x00, 0xe8, 0x07, 0x00, 0x1e, 0x00, 0xc0, 0x07, 0xe0, 0x01,
   0xfe, 0x00, 0x0c, 0xfc, 0x00, 0x30, 0x70, 0x00, 0x03, 0x7c, 0x00, 0x1c,
   0x00, 0x1e, 0x00, 0xe0, 0x07, 0x00, 0xc0, 0x07, 0xc0, 0x01, 0x00, 0x00,
   0xf6, 0x01, 0xe8, 0x07, 0x00, 0x3e, 0x00, 0xe0, 0x03, 0xc0, 0x01, 0xfe,
   0x01, 0x0c, 0xfc, 0x00, 0x30, 0x78, 0x00, 0x03, 0x3e, 0x00, 0x1c, 0x00,
   0x3e, 0x00, 0xe0, 0x07, 0x00, 0xe0, 0x03, 0xc0, 0x01, 0x00, 0x00, 0xf6,
   0x01, 0xe8, 0x07, 0x00, 0x3f, 0x00, 0xe0, 0x03, 0xc0, 0x01, 0xfe, 0x03,
   0x0c, 0xfc, 0x00, 0x30, 0x78, 0x00, 0x02, 0x3e, 0x00, 0x18, 0x00, 0x3f,
   0x00, 0xe0, 0x07, 0x00, 0xe0, 0x03, 0x80, 0x01, 0x00, 0x00, 0xf6, 0x01,
   0xe4, 0x07, 0x00, 0x7f, 0x00, 0xf0, 0x01, 0x80, 0x01, 0xf6, 0x07, 0x0c,
   0xfc, 0x00, 0x30, 0xf8, 0x00, 0x02, 0x3f, 0x00, 0x10, 0x00, 0x7f, 0x00,
   0xe0, 0x07, 0x00, 0xf0, 0x03, 0x00, 0x01, 0x00, 0x00, 0xe6, 0x03, 0xe4,
   0x07, 0x00, 0x7f, 0x00, 0xf0, 0x01, 0x80, 0x01, 0xe6, 0x0f, 0x0c, 0xfc,
   0x00, 0x30, 0xf8, 0x01, 0x00, 0x1f, 0x00, 0x10, 0x00, 0x7f, 0x00, 0xe0,
   0x07, 0x00, 0xf0, 0x01, 0x00, 0x01, 0x00, 0x00, 0xe6, 0x03, 0xe2, 0x07,
   0x80, 0xfd, 0x00, 0xf8, 0x01, 0x00, 0x00, 0xc6, 0x0f, 0x0c, 0xfc, 0x00,
   0x30, 0xf8, 0x07, 0x80, 0x1f, 0x00, 0x00, 0x80, 0xfd, 0x00, 0xe0, 0x07,
   0x00, 0xf8, 0x01, 0x00, 0x00, 0x00, 0x00, 0xc6, 0x07, 0xe2, 0x07, 0x80,
   0xfc, 0x00, 0xf8, 0x01, 0x00, 0x00, 0x86, 0x1f, 0x0c, 0xfc, 0x00, 0x30,
   0xf0, 0x1f, 0x80, 0x1f, 0x00, 0x00, 0x80, 0xfc, 0x00, 0xe0, 0x07, 0x00,
   0xf8, 0x01, 0x00, 0x00, 0x00, 0x00, 0xc6, 0x07, 0xe3, 0x07, 0xc0, 0xf8,
   0x00, 0xf8, 0x01, 0x00, 0x00, 0x86, 0x3f, 0x0c, 0xfc, 0x00, 0x30, 0xf0,
   0x7f, 0x80, 0x1f, 0x00, 0x00, 0xc0, 0xf8, 0x00, 0xe0, 0x07, 0x00, 0xf8,
   0x01, 0x00, 0x00, 0x00, 0x00, 0xc6, 0x0f, 0xe1, 0x07, 0xc0, 0xf8, 0x01,
   0xf8, 0x01, 0x00, 0x00, 0x06, 0x7f, 0x0c, 0xfc, 0x00, 0x30, 0xe0, 0xff,
   0x80, 0x1f, 0x00, 0x00, 0xc0, 0xf8, 0x01, 0xe0, 0x07, 0x00, 0xf8, 0x01,
   0x00, 0x00, 0x00, 0x00, 0x86, 0x0f, 0xe1, 0x07, 0x40, 0xf8, 0x01, 0xf8,
   0x01, 0x00, 0x00, 0x06, 0xfe, 0x0c, 0xfc, 0x00, 0x30, 0xc0, 0xff, 0x81,
   0x1f, 0x00, 0x00, 0x40, 0xf8, 0x01, 0xe0, 0x07, 0x00, 0xf8, 0x01, 0x00,
   0x00, 0x00, 0x00, 0x86, 0x8f, 0xe0, 0x07, 0x60, 0xf0, 0x03, 0xf8, 0x01,
   0x00, 0x00, 0x06, 0xfc, 0x0d, 0xfc, 0x00, 0x30, 0x00, 0xff, 0x83, 0x1f,
   0x00, 0x00, 0x60, 0xf0, 0x03, 0xe0, 0x07, 0x00, 0xf8, 0x01, 0x00, 0x00,
   0x00, 0x00, 0x06, 0x9f, 0xe0, 0x07, 0x20, 0xf0, 0x03, 0xf8, 0x01, 0xff,
   0x0f, 0x06, 0xf8, 0x0d, 0xfc, 0x00, 0x30, 0x00, 0xfc, 0x83, 0x1f, 0x00,
   0x00, 0x20, 0xf0, 0x03, 0xe0, 0x07, 0x00, 0xf8, 0x01, 0x00, 0x00, 0x00,
   0x00, 0x06, 0xdf, 0xe0, 0x07, 0x30, 0xe0, 0x07, 0xf8, 0x01, 0xf8, 0x01,
   0x06, 0xf0, 0x0f, 0xfc, 0x00, 0x30, 0x00, 0xf0, 0x87, 0x1f, 0x00, 0x00,
   0x30, 0xe0, 0x07, 0xe0, 0x07, 0x00, 0xf8, 0x01, 0x00, 0x00, 0x00, 0x00,
   0x06, 0x7f, 0xe0, 0x07, 0xf0, 0xff, 0x07, 0xf0, 0x01, 0xf8, 0x01, 0x06,
   0xf0, 0x0f, 0xfc, 0x00, 0x30, 0x0c, 0xc0, 0x07, 0x1f, 0x00, 0x00, 0xf0,
   0xff, 0x07, 0xe0, 0x07, 0x80, 0xf0, 0x01, 0x00, 0x00, 0x00, 0x00, 0x06,
   0x7e, 0xe0, 0x07, 0x18, 0xc0, 0x0f, 0xf0, 0x01, 0xf8, 0x01, 0x06, 0xe0,
   0x0f, 0xfc, 0x00, 0x30, 0x0c, 0xc0, 0x07, 0x3f, 0x00, 0x00, 0x18, 0xc0,
   0x0f, 0xe0, 0x07, 0xc0, 0xf0, 0x03, 0x00, 0x00, 0x00, 0x00, 0x06, 0x3e,
   0xe0, 0x07, 0x18, 0xc0, 0x0f, 0xf0, 0x03, 0xf8, 0x01, 0x06, 0xc0, 0x0f,
   0xfc, 0x00, 0x10, 0x1c, 0x80, 0x07, 0x3e, 0x00, 0x00, 0x18, 0xc0, 0x0f,
   0xe0, 0x07, 0x40, 0xe0, 0x03, 0x00, 0x00, 0x00, 0x00, 0x06, 0x3c, 0xe0,
   0x07, 0x08, 0xc0, 0x0f, 0xe0, 0x03, 0xf8, 0x01, 0x06, 0x80, 0x0f, 0xfc,
   0x00, 0x18, 0x1c, 0x80, 0x07, 0x3e, 0x00, 0x30, 0x08, 0xc0, 0x0f, 0xe0,
   0x07, 0x60, 0xe0, 0x03, 0x00, 0x03, 0x00, 0x00, 0x06, 0x3c, 0xe0, 0x07,
   0x0c, 0x80, 0x1f, 0xc0, 0x03, 0xf8, 0x01, 0x06, 0x00, 0x0f, 0xf8, 0x01,
   0x18, 0x3c, 0x80, 0x03, 0x7c, 0x00, 0x18, 0x0c, 0x80, 0x1f, 0xe0, 0x07,
   0x70, 0xc0, 0x07, 0x80, 0x01, 0x00, 0x00, 0x06, 0x1c, 0xe0, 0x07, 0x0c,
   0x80, 0x1f, 0x80, 0x07, 0xf8, 0x01, 0x06, 0x00, 0x0e, 0xf0, 0x03, 0x0c,
   0x7c, 0xc0, 0x01, 0xf8, 0x00, 0x0e, 0x0c, 0x80, 0x1f, 0xe0, 0x07, 0x78,
   0x80, 0x0f, 0xe0, 0x00, 0x00, 0x00, 0x0f, 0x18, 0xf0, 0x0f, 0x0e, 0x80,
   0x3f, 0x00, 0x1e, 0xfc, 0x01, 0x0f, 0x00, 0x0e, 0xe0, 0x07, 0x07, 0xfc,
   0xe0, 0x00, 0xe0, 0x83, 0x03, 0x0e, 0x80, 0x3f, 0xf0, 0x07, 0x7e, 0x00,
   0x3e, 0x38, 0x00, 0x00, 0xc0, 0x3f, 0x08, 0xfc, 0xbf, 0x7f, 0xf0, 0xff,
   0x00, 0xf8, 0x3f, 0xc0, 0x3f, 0x00, 0x0c, 0xc0, 0xff, 0x01, 0x8c, 0x3f,
   0x00, 0x80, 0xff, 0x81, 0x7f, 0xf0, 0xff, 0xfc, 0xff, 0x7f, 0x00, 0xf8,
   0x1f, 0x00, 0x00, 0x00, 0x00, 0x00, 0x00, 0x00, 0x00, 0x00, 0x00, 0x00,
   0x00, 0x00, 0x00, 0x00, 0x00, 0x00, 0x00, 0x00, 0x00, 0x00, 0x00, 0x00,
   0x00, 0x00, 0x00, 0x00, 0x00, 0x00, 0x00, 0x00, 0x00, 0x00, 0x00, 0x00,
   0x00, 0x00, 0x00, 0x00, 0x00, 0x00, 0x00, 0x00, 0x00, 0x00, 0x00, 0x00,
   0x00, 0x00, 0x00, 0x00, 0x00, 0x00, 0x00, 0x00, 0x00, 0x00, 0x00, 0x00,
   0x00, 0x00, 0x00, 0x00, 0x00, 0x00, 0x00, 0x00, 0x00, 0x00, 0x00, 0x00,
   0x00, 0x00, 0x00, 0x00, 0x00, 0x00, 0x00, 0x00, 0x00, 0x00, 0x00, 0x00,
   0x00, 0x00, 0x00, 0x00, 0x00, 0x00, 0x00, 0x00, 0x00, 0x00, 0x00, 0x00,
   0x00, 0x00, 0x00, 0x00, 0x00, 0x00, 0x00, 0x00, 0x00, 0x00, 0x00, 0x00,
   0x00, 0x00, 0x00, 0x00, 0x00, 0x00, 0x00, 0x00, 0x00, 0x00, 0x00, 0x00,
   0x00, 0x00, 0x00, 0x00, 0x00, 0x00, 0x00, 0x00, 0x00, 0x00, 0x00, 0x00,
   0x00, 0x00, 0x00, 0x00, 0x00, 0x00, 0x00, 0x00, 0x00, 0x00, 0x00, 0x00,
   0x00, 0x00, 0x00, 0x00, 0x00, 0x00, 0x00, 0x00, 0x00, 0x00, 0x00, 0x00,
   0x00, 0x00, 0x00, 0x00, 0x00, 0x00, 0x00, 0x00, 0x00, 0x00, 0x00, 0x00,
   0x00, 0x00, 0x00, 0x00, 0x00, 0x00, 0x00, 0x00, 0x00, 0x00, 0x00, 0x00,
   0x00, 0x00, 0x00, 0x00, 0x00, 0x00, 0x00, 0x00, 0x00, 0x00, 0x00, 0x00,
   0x00, 0x00, 0x00, 0x00, 0x00, 0x00, 0x00, 0x00, 0x00, 0x00, 0x00, 0x00,
   0x00, 0x00, 0x00, 0x00, 0x00, 0x00, 0x00, 0x00, 0x00, 0x00, 0x00, 0x00,
   0x00, 0x00, 0x00, 0x00, 0x00, 0x00, 0x00, 0x00, 0x00, 0x00, 0x00, 0x00,
   0x00, 0x00, 0x00, 0x00, 0x00, 0x00, 0x00, 0x00, 0x00, 0x00, 0x00, 0x00,
   0x00, 0x00, 0x00, 0x00, 0x00, 0x00, 0x00, 0x00, 0x00, 0x00, 0x00, 0x00,
   0x00, 0x00, 0x00, 0x00, 0x00, 0x00, 0x00, 0x00, 0x00, 0x00, 0x00, 0x00,
   0x00, 0x00, 0x00, 0x00, 0x00, 0x00, 0x00, 0x00, 0x00, 0x00, 0x00, 0x00,
   0x00, 0x00, 0x00, 0x00, 0x00, 0x00, 0x00, 0x00, 0x00, 0x00, 0x00, 0x00,
   0x00, 0x00, 0x00, 0x00, 0x00, 0x00, 0x00, 0x00, 0x00, 0x00, 0x00, 0x00,
   0x00, 0x00, 0x00, 0x00, 0x00, 0x00, 0x00, 0x00, 0x00, 0x00, 0x00, 0x00,
   0x00, 0x00, 0x00, 0x00, 0x00, 0x00, 0x00, 0x00, 0x00, 0x00, 0x00, 0x00,
   0x00, 0x00, 0x00, 0x00, 0x00, 0x00, 0x00, 0x00, 0x00, 0x00, 0x00, 0x00,
   0x00, 0x00, 0x00, 0x00, 0x00, 0x00, 0x00, 0x00, 0x00, 0x00, 0x00, 0x00,
   0x00, 0x00, 0x00, 0x00, 0x00, 0x00, 0x00, 0x00, 0x00, 0x00, 0x00, 0x00,
   0x00, 0x00, 0x00, 0x00, 0x00, 0x00, 0x00, 0x00, 0x00, 0x00, 0x00, 0x00,
   0x00, 0x00, 0x00, 0x00, 0x00, 0x00, 0x00, 0x00, 0x00, 0x00, 0x00, 0x00,
   0x00, 0x00, 0x00, 0x00, 0x00, 0x00, 0x00, 0x00, 0x00, 0x00, 0x00, 0x00,
   0x00, 0x00, 0x00, 0x00, 0x00, 0x00, 0x00, 0x00, 0x00, 0x00, 0x00, 0x00,
   0x00, 0x00, 0x00, 0x00, 0x00, 0x00, 0x00, 0x00, 0x00, 0x00, 0x00, 0x00,
   0x00, 0x00, 0x00, 0x00, 0x00, 0x00, 0x00, 0x00, 0x00, 0x00, 0x00, 0x00,
   0x00, 0x00, 0x00, 0x00, 0x00, 0x00, 0x00, 0x00, 0x00, 0x00, 0x00, 0x00,
   0x00, 0x00, 0x00, 0x00, 0x00, 0x00, 0x00, 0x00, 0x00, 0x00, 0x00, 0x00,
   0x00, 0x00, 0x00, 0x00, 0x00, 0x00, 0x00, 0x00, 0x00, 0x00, 0x00, 0x00,
   0x00, 0x00, 0x00, 0x00, 0x00, 0x00, 0x00, 0x00, 0x00, 0x00, 0x00, 0x00,
   0x00, 0x00, 0x00, 0x00, 0x00, 0x00, 0x00, 0x00, 0x00, 0x00, 0x00, 0x00,
   0x00, 0x03, 0xf0, 0x03, 0x00, 0x00, 0x00, 0x00, 0x00, 0x38, 0x00, 0x00,
   0xfe, 0x00, 0x00, 0x0c, 0x00, 0x60, 0x00, 0x00, 0x00, 0x00, 0x00, 0x00,
   0x00, 0x00, 0x00, 0x00, 0x00, 0x00, 0x00, 0x00, 0x00, 0x00, 0x00, 0x00,
   0x03, 0x38, 0x07, 0x00, 0x60, 0x00, 0x00, 0x00, 0x0c, 0x00, 0x00, 0x06,
   0x00, 0x00, 0x0c, 0x00, 0x60, 0x00, 0x00, 0x00, 0x00, 0x00, 0x00, 0x00,
   0x00, 0x00, 0x00, 0x00, 0x00, 0x00, 0x00, 0x00, 0x00, 0x00, 0x80, 0x07,
   0x18, 0x06, 0x00, 0x60, 0x00, 0x00, 0x00, 0x0c, 0x00, 0x00, 0x06, 0x00,
   0x00, 0x0c, 0x00, 0x00, 0x00, 0x00, 0x00, 0x7f, 0x00, 0x0c, 0x00, 0x00,
   0xfc, 0x00, 0x07, 0x00, 0x1c, 0x80, 0x18, 0x00, 0x00, 0x80, 0x04, 0x38,
   0x30, 0xcc, 0xf3, 0x79, 0x6c, 0x07, 0x1e, 0x87, 0x0d, 0x06, 0xc6, 0x36,
   0x0c, 0x87, 0x6d, 0x76, 0x70, 0x01, 0x86, 0x00, 0x0c, 0x00, 0x00, 0x86,
   0x00, 0x06, 0x00, 0x18, 0x80, 0x18, 0x00, 0x00, 0xc0, 0x0c, 0xf0, 0x30,
   0xec, 0x66, 0xcc, 0xdc, 0x0d, 0x8c, 0x8d, 0x0f, 0x06, 0xc6, 0x6e, 0x8c,
   0x8d, 0x6f, 0xee, 0xd8, 0x01, 0x86, 0x01, 0x00, 0x00, 0x00, 0x83, 0x00,
   0x06, 0x00, 0x18, 0xc0, 0x00, 0x00, 0x00, 0xc0, 0x0c, 0xc0, 0x63, 0x66,
   0x60, 0xcc, 0xcc, 0x0c, 0xcc, 0x98, 0x01, 0xfe, 0x6c, 0xc6, 0xcc, 0x98,
   0x61, 0xc6, 0x8c, 0x01, 0x86, 0xf9, 0xee, 0xcf, 0x0f, 0x03, 0x7c, 0xc6,
   0xdd, 0x99, 0xef, 0x9d, 0xef, 0x07, 0x60, 0x18, 0x00, 0x67, 0xc6, 0x63,
   0xfc, 0xcc, 0x0c, 0xcc, 0x98, 0x01, 0x06, 0x38, 0xc6, 0xcc, 0x98, 0x61,
   0xc6, 0x8c, 0x01, 0x86, 0x8d, 0xcd, 0x6c, 0x06, 0x03, 0x64, 0x36, 0x9b,
   0x99, 0xcc, 0xd8, 0xd8, 0x04, 0xe0, 0x1f, 0x00, 0x46, 0x02, 0x67, 0x0c,
   0xcc, 0x0c, 0xcc, 0x98, 0x01, 0x06, 0x38, 0xc6, 0xcc, 0x98, 0x61, 0xc6,
   0x8c, 0x01, 0x86, 0x8d, 0xcd, 0x6c, 0x06, 0x03, 0x70, 0x36, 0x98, 0x19,
   0xce, 0xd8, 0xd8, 0x04, 0x60, 0x18, 0x18, 0xc6, 0x03, 0x66, 0x0c, 0xcc,
   0x0c, 0xcc, 0x98, 0x01, 0x06, 0x6c, 0xc6, 0xcc, 0x98, 0x61, 0xc6, 0x8c,
   0x01, 0x86, 0x8d, 0xcd, 0xcc, 0x03, 0x03, 0x6c, 0x36, 0x98, 0x99, 0xcd,
   0xd8, 0xd8, 0x04, 0x30, 0x30, 0xb8, 0x83, 0xe1, 0x66, 0xdd, 0xcc, 0x0c,
   0x8c, 0x8d, 0x01, 0x06, 0xc6, 0x6e, 0x8c, 0x8d, 0x61, 0xc6, 0xd8, 0x01,
   0xc6, 0x88, 0xcc, 0x6c, 0x00, 0x86, 0x66, 0x66, 0x9e, 0xd9, 0xcc, 0x9a,
   0xc8, 0x04, 0x30, 0x30, 0xf0, 0x81, 0xc1, 0xc3, 0x78, 0xcc, 0x0c, 0x0c,
   0x87, 0x01, 0xfe, 0xc6, 0x3e, 0x0c, 0x87, 0x61, 0xc6, 0xf0, 0x01, 0x7f,
   0x70, 0xfe, 0xff, 0x07, 0x7c, 0xfe, 0xcf, 0xf9, 0xfd, 0xdf, 0x3d, 0xe7,
   0x07, 0x00, 0x00, 0x00, 0x80, 0x01, 0x00, 0x00, 0x00, 0x00, 0x00, 0x00,
   0x00, 0x00, 0x00, 0x06, 0x00, 0x00, 0x00, 0x00, 0x80, 0x01, 0x00, 0x00,
   0x00, 0xc0, 0x0f, 0x00, 0x00, 0x00, 0x00, 0x00, 0x00, 0x00, 0x00, 0x00,
   0x00, 0x00, 0x00, 0xc0, 0x00, 0x00, 0x00, 0x00, 0x00, 0x00, 0x00, 0x00,
   0x00, 0x00, 0x06, 0x00, 0x00, 0x00, 0x00, 0xcc, 0x01, 0x00, 0x00, 0x00,
   0x60, 0x0c, 0x00, 0x00, 0x00, 0x00, 0x00, 0x00, 0x00, 0x00, 0x00, 0x00,
   0x00, 0x00, 0xe0, 0x00, 0x00, 0x00, 0x00, 0x00, 0x00, 0x00, 0x00, 0x00,
   0x00, 0x06, 0x00, 0x00, 0x00, 0x00, 0xf8, 0x00, 0x00, 0x00, 0x00, 0xc0,
   0x07, 0x00, 0x00, 0x00, 0x00, 0x00, 0x00, 0x00, 0x00, 0x00, 0x00, 0x00,
   0x00, 0x00, 0x00, 0x00, 0x00, 0x00, 0x00, 0x00, 0x00, 0x00, 0x00, 0x00,
   0x00, 0x00, 0x00, 0x00, 0x00, 0x00, 0x00, 0x00, 0x00, 0x00, 0x00, 0x00,
   0x00, 0x00, 0x00, 0x00, 0x00, 0x00, 0x00, 0x00, 0x00, 0x00, 0x00, 0x00,
   0x00, 0x00, 0x00, 0x00, 0x00, 0x00, 0x00, 0x00, 0x00, 0x00, 0x00, 0x00,
   0x00, 0x00, 0x00, 0x00, 0x00, 0x00, 0x00, 0x00, 0x00, 0x00, 0x00, 0x00,
   0x00, 0x00, 0x00, 0x00, 0x00, 0x00, 0x00, 0x00, 0x00, 0x00, 0x00, 0x00,
   0x00, 0x00, 0x00, 0x00, 0x00, 0x00, 0x00, 0x00, 0x00, 0x00, 0x00, 0x00,
   0x00, 0x00, 0x00, 0x00, 0x00, 0x00, 0x00, 0x00, 0x00, 0x00, 0x00, 0x00,
   0x00, 0x00, 0x00, 0x00, 0x00, 0x00, 0x00, 0x00, 0x00, 0x00, 0x00, 0x00,
   0x00, 0x00, 0x00, 0x00, 0x00, 0x00, 0x00, 0x00, 0x00, 0x00, 0x00, 0x00,
   0x00, 0x00, 0x00, 0x00, 0x00, 0x00, 0x00, 0x00, 0x00, 0x00, 0x00, 0x00,
   0x00, 0x00, 0x00, 0x00, 0x00, 0x00 };
